<svg width="23" height="20" viewBox="0 0 23 20" fill="none" xmlns="http://www.w3.org/2000/svg">
<path opacity="0.7" fill-rule="evenodd" clip-rule="evenodd" d="M17.1204 3.84205C17.1642 3.91858 17.2408 3.97324 17.3393 3.97324C19.9659 3.97324 22.1111 6.11597 22.1111 8.73972V15.2335C22.1111 17.8573 19.9659 20 17.3393 20H4.99395C2.35633 20 0.222168 17.8573 0.222168 15.2335V8.73972C0.222168 6.11597 2.35633 3.97324 4.99395 3.97324C5.0815 3.97324 5.16906 3.92951 5.20189 3.84205L5.26756 3.71086C5.30529 3.63145 5.34402 3.54988 5.38333 3.46707C5.66331 2.87733 5.97306 2.22489 6.165 1.84144C6.66845 0.857535 7.52211 0.31092 8.58372 0.299988H13.7386C14.8002 0.31092 15.6648 0.857535 16.1682 1.84144C16.3406 2.1858 16.6032 2.7405 16.8563 3.27513C16.9086 3.38546 16.9604 3.49494 17.0109 3.60154L17.1204 3.84205ZM16.3216 8.04005C16.3216 8.58667 16.7594 9.02396 17.3066 9.02396C17.8538 9.02396 18.3026 8.58667 18.3026 8.04005C18.3026 7.49344 17.8538 7.04521 17.3066 7.04521C16.7594 7.04521 16.3216 7.49344 16.3216 8.04005ZM9.27288 9.73452C9.78727 9.2207 10.4549 8.94739 11.1663 8.94739C11.8777 8.94739 12.5453 9.2207 13.0487 9.72359C13.5522 10.2265 13.8258 10.8933 13.8258 11.6039C13.8148 13.0689 12.6328 14.2605 11.1663 14.2605C10.4549 14.2605 9.78727 13.9872 9.28383 13.4843C8.78038 12.9814 8.50677 12.3145 8.50677 11.6039V11.593C8.49583 10.9043 8.76944 10.2374 9.27288 9.73452ZM14.1981 14.6431C13.4211 15.4193 12.3485 15.9004 11.1665 15.9004C10.0174 15.9004 8.9448 15.4521 8.12396 14.6431C7.31408 13.8232 6.86535 12.7519 6.86535 11.604C6.85441 10.467 7.30313 9.39564 8.11302 8.57572C8.93385 7.7558 10.0174 7.30757 11.1665 7.30757C12.3157 7.30757 13.3992 7.7558 14.2091 8.56479C15.019 9.38471 15.4677 10.467 15.4677 11.604C15.4567 12.7956 14.9752 13.867 14.1981 14.6431Z" fill="#030229"/>
</svg>
