<?xml version="1.0" standalone="no"?>
<!DOCTYPE svg PUBLIC "-//W3C//DTD SVG 20010904//EN"
 "http://www.w3.org/TR/2001/REC-SVG-20010904/DTD/svg10.dtd">
<svg version="1.0" xmlns="http://www.w3.org/2000/svg"
 width="1068.000000pt" height="982.000000pt" viewBox="0 0 1068.000000 982.000000"
 preserveAspectRatio="xMidYMid meet">

<g transform="translate(0.000000,982.000000) scale(0.100000,-0.100000)"
fill="#000000" stroke="none">
<path d="M45 9807 c-3 -6 -4 -786 -3 -1732 3 -1856 1 -1775 54 -1775 12 0 25
-8 29 -17 3 -10 10 -108 15 -218 5 -110 12 -230 16 -267 3 -37 4 -74 0 -83 -5
-15 -10 -14 -41 5 -41 26 -51 21 -64 -28 -13 -50 -14 -542 -1 -667 14 -149 22
-169 71 -188 29 -11 40 -21 37 -33 -4 -20 -31 -26 -64 -14 -20 8 -24 5 -34
-25 -8 -23 -8 -45 -1 -70 5 -19 7 -60 4 -89 -6 -58 2 -106 17 -106 5 0 38 22
74 50 37 27 66 47 66 43 0 -3 -10 -22 -21 -43 -14 -25 -40 -48 -71 -65 -38
-21 -55 -38 -68 -69 -18 -39 -19 -133 -19 -2215 -1 -1608 2 -2177 10 -2187 16
-20 10601 -21 10617 -1 9 10 10 639 3 2225 0 12 0 43 1 70 0 26 1 61 1 77 -1
17 -1 57 -1 90 0 33 0 74 -1 90 0 17 0 471 0 1010 1 539 1 1063 1 1165 0 102
0 295 0 430 1 135 -1 362 -3 505 l-5 260 -44 1 c-27 1 -47 7 -55 17 -7 9 -16
101 -23 226 -7 116 -17 222 -22 236 l-10 25 -137 1 c-76 0 -178 2 -226 5 -68
3 -93 1 -110 -11 -19 -14 -23 -13 -47 9 -25 25 -67 37 -130 40 l-35 1 -13 -70
c-7 -38 -15 -146 -18 -240 -5 -140 -4 -176 9 -206 l15 -37 64 5 c72 5 100 -6
79 -31 -11 -13 -9 -17 15 -27 39 -14 230 -2 260 17 30 20 271 32 302 15 22
-12 22 -12 -23 -64 -25 -28 -44 -56 -42 -62 2 -5 32 -12 68 -15 35 -3 69 -8
75 -12 15 -10 13 -113 -2 -128 -7 -7 -96 -11 -260 -11 -234 -1 -384 -13 -367
-30 5 -5 42 -11 82 -14 41 -3 77 -7 80 -10 3 -3 0 -15 -7 -25 -7 -11 -12 -27
-12 -35 0 -19 -19 -19 -46 -1 -14 10 -46 14 -96 14 l-76 -1 -9 -31 c-7 -25
-15 -32 -40 -34 -38 -4 -73 13 -73 33 0 8 -6 15 -13 15 -12 0 -12 -11 0 -67
21 -101 29 -227 21 -328 -4 -49 -11 -145 -16 -211 -5 -67 -13 -128 -18 -135
-5 -8 -9 -48 -9 -89 0 -85 10 -79 -108 -62 -55 8 -65 14 -86 52 -13 24 1 86
18 76 5 -3 23 -1 40 5 25 9 29 14 20 25 -16 19 -76 18 -87 -1 -7 -14 -12 -13
-33 8 -14 13 -47 31 -72 41 -68 26 -76 48 -32 82 97 74 121 108 93 132 -30 24
-52 18 -62 -18 -5 -19 -15 -38 -20 -42 -6 -4 -43 -8 -82 -8 l-71 0 1 -42 1
-43 -84 -7 c-48 -4 -92 -3 -102 2 -23 13 -38 -6 -45 -63 -4 -25 -13 -48 -20
-51 -27 -10 -13 -25 39 -41 72 -23 186 -65 225 -82 44 -21 43 -53 -5 -92 -41
-34 -63 -39 -63 -16 0 20 -22 30 -120 55 -47 12 -174 48 -283 81 -109 32 -213
59 -231 59 -42 0 -79 -37 -74 -76 2 -22 11 -30 48 -43 131 -44 460 -166 492
-182 21 -11 46 -19 58 -19 23 0 26 -10 8 -28 -27 -27 -60 -17 -484 141 -161
60 -187 86 -145 145 11 16 29 54 41 84 23 63 37 78 81 87 39 8 72 57 49 71
-10 6 -22 4 -36 -5 -27 -18 -89 -29 -111 -21 -15 6 -12 11 16 28 32 21 33 24
28 69 -4 35 -2 51 9 59 24 21 16 27 -41 32 -39 3 -81 17 -140 47 -99 51 -117
68 -124 124 -6 38 -9 43 -52 58 -46 17 -138 74 -151 93 -4 6 -3 15 2 21 4 5 7
40 6 77 -1 58 2 70 23 92 50 53 164 60 208 12 12 -14 39 -28 58 -32 50 -9 125
-85 125 -126 l0 -30 135 4 c171 4 167 0 169 141 0 58 -2 109 -6 113 -4 4 -14
1 -22 -5 -38 -31 -90 16 -61 55 12 16 16 17 41 4 16 -8 32 -16 37 -18 13 -6 8
115 -5 126 -7 5 -34 13 -60 17 -51 8 -57 15 -33 35 24 20 18 46 -15 60 -44 18
-60 8 -60 -40 0 -33 -4 -42 -25 -52 -22 -10 -24 -16 -19 -44 6 -31 -8 -72 -30
-86 -6 -4 -23 -8 -37 -8 -79 0 -124 51 -95 108 9 17 25 34 37 37 21 7 21 7 -3
32 -12 14 -38 32 -55 39 -21 9 -39 28 -51 52 -19 41 -51 53 -71 28 -21 -25 -6
-42 43 -55 49 -12 60 -35 32 -64 -20 -20 -181 -33 -201 -17 -10 8 -52 11 -137
9 -104 -3 -123 -2 -123 11 0 11 9 14 32 12 28 -3 33 1 39 23 10 41 -11 54 -42
24 -25 -23 -26 -24 -40 -5 -34 47 -6 104 42 85 18 -6 24 -4 29 12 10 30 39 19
45 -16 5 -30 5 -30 78 -32 40 -1 79 -7 87 -13 20 -16 62 45 45 65 -18 21 -50
18 -77 -7 -19 -18 -27 -20 -48 -10 -14 6 -33 27 -42 47 -21 44 -46 52 -79 26
-57 -45 -114 -15 -99 53 3 17 8 49 9 71 4 59 22 96 64 132 45 38 36 59 -18 43
-29 -8 -38 -7 -53 9 -38 38 9 83 65 62 13 -5 33 -5 45 0 12 4 90 10 172 12
134 4 155 2 186 -14 32 -18 44 -18 117 -9 53 6 86 6 92 0 11 -11 -1 -16 -64
-24 -132 -17 -158 -30 -83 -41 63 -9 145 -37 146 -50 1 -5 -31 -16 -72 -22
-41 -7 -75 -14 -78 -16 -8 -8 27 -75 42 -81 9 -3 35 -6 58 -6 28 0 48 -7 65
-22 21 -21 35 -23 135 -25 62 -1 127 -2 146 -3 19 -1 38 3 43 8 15 15 22 192
9 240 -14 49 -26 54 -34 14 -6 -29 -40 -52 -76 -52 -45 0 -70 79 -32 100 11 5
40 12 65 15 25 2 60 11 79 18 22 10 112 19 263 26 126 7 304 16 396 22 92 5
218 9 280 9 61 0 173 5 247 10 75 6 241 17 370 24 260 15 261 16 261 84 0 57
-13 69 -82 77 l-62 7 44 23 c74 38 81 50 89 167 4 57 7 724 7 1483 l-1 1380
-5313 3 c-4262 2 -5314 0 -5317 -11z m5848 -507 c543 -138 1442 -376 1591
-421 135 -42 179 -87 145 -151 -13 -24 -67 -48 -109 -48 -32 0 -208 44 -815
205 -198 52 -529 138 -735 190 -206 53 -388 101 -403 107 -33 13 -47 36 -47
76 0 34 24 58 77 78 51 19 102 13 296 -36z m-1613 -340 c31 -17 108 -28 264
-40 80 -6 165 -18 188 -26 70 -25 300 -48 493 -48 208 -1 229 -8 276 -87 40
-69 45 -89 20 -89 -12 0 -43 -16 -70 -35 -49 -36 -71 -45 -151 -66 -44 -11
-44 -11 -20 -24 65 -33 189 -24 226 16 9 10 21 19 26 19 17 0 7 -29 -15 -47
-13 -10 -35 -37 -48 -60 -29 -51 -19 -78 27 -78 23 0 33 7 49 37 11 21 23 38
26 38 11 0 16 -152 7 -185 -4 -17 -19 -46 -33 -65 -30 -41 -32 -85 -4 -125 39
-58 88 -162 103 -221 8 -32 24 -125 35 -206 12 -80 25 -158 31 -174 17 -43 7
-56 -37 -48 -62 10 -78 26 -90 86 -6 29 -18 73 -28 98 l-18 45 33 53 c29 47
32 59 27 103 -6 50 -44 132 -111 244 -64 105 -66 150 -8 157 24 3 28 9 34 50
3 26 9 51 12 56 3 5 -14 10 -39 10 -71 2 -132 44 -95 67 6 3 10 16 10 29 0 27
-35 46 -87 46 -20 0 -45 8 -55 17 -19 17 -128 36 -128 22 0 -14 42 -38 56 -32
8 3 21 0 29 -7 25 -21 -1 -42 -42 -34 -29 6 -35 3 -40 -15 -7 -28 -38 -27
-108 3 -30 14 -57 21 -60 16 -3 -4 2 -10 10 -14 22 -8 19 -46 -4 -46 -10 0
-21 7 -25 15 -3 8 -17 20 -31 27 -30 14 -32 29 -5 46 30 18 25 46 -10 59 -55
21 -30 52 41 53 14 0 34 6 44 14 16 12 17 16 6 29 -11 14 -8 22 20 57 29 35
31 42 18 55 -12 13 -21 12 -64 -9 -63 -29 -179 -58 -199 -50 -23 9 -20 29 7
47 21 15 20 16 -25 10 -41 -5 -50 -2 -73 21 -26 26 -45 27 -45 1 0 -19 -49
-55 -75 -55 -13 0 -46 16 -75 35 -69 47 -244 145 -257 145 -6 0 -23 10 -38 22
l-27 21 28 13 c36 16 70 17 94 4z m-2920 -265 c146 -8 481 -24 745 -35 264
-11 523 -22 575 -25 52 -3 245 -12 429 -20 184 -8 338 -18 344 -24 6 -6 5 -22
-3 -45 -16 -50 -7 -59 50 -52 83 11 86 -28 5 -63 -62 -27 -91 -31 -170 -21
-44 5 -215 16 -380 25 -165 9 -451 24 -635 35 -184 11 -380 22 -435 25 -745
39 -1035 58 -1057 67 -23 8 -28 17 -28 45 0 43 25 91 53 103 23 10 79 9 507
-15z m2520 -129 c0 -14 -74 -45 -122 -50 -94 -12 -82 24 15 44 47 9 107 12
107 6z m5933 -577 c44 -34 91 -239 108 -474 5 -71 12 -156 15 -187 5 -47 2
-64 -17 -97 -30 -54 -63 -67 -120 -46 -81 31 -96 30 -113 -2 -8 -17 -18 -53
-22 -81 -7 -53 -35 -95 -57 -86 -21 8 -38 43 -44 93 -4 37 0 57 16 90 21 41
22 44 5 93 l-16 50 35 51 c20 29 39 69 42 90 4 21 17 50 30 65 33 40 36 67 19
182 -20 131 -16 230 10 259 25 27 75 27 109 0z m-4593 -228 c0 -11 -117 -86
-147 -96 -13 -3 -30 -2 -40 3 -15 9 -14 13 14 39 44 42 173 82 173 54z m449
-406 c20 -10 30 -24 34 -47 5 -28 22 -243 30 -383 l2 -40 16 30 c9 17 29 66
44 110 37 106 62 155 81 155 20 0 13 -49 -23 -165 -34 -107 -55 -147 -100
-184 -35 -29 -36 -31 -25 -67 13 -43 8 -58 -34 -106 -31 -35 -34 -42 -33 -105
1 -106 -45 -253 -80 -253 -9 0 -26 -3 -38 -6 -21 -6 -23 -3 -23 39 0 25 -5 49
-11 53 -7 4 -9 23 -5 53 5 39 3 49 -14 64 -14 11 -19 25 -15 40 3 12 9 63 14
113 6 73 13 98 34 130 43 61 32 102 -16 64 -50 -40 -77 -22 -94 62 -4 23 -1
29 21 38 26 9 26 11 26 107 1 58 6 107 13 119 28 49 81 99 106 100 22 0 27 6
29 35 3 30 17 59 29 59 2 0 17 -7 32 -15z m-3567 -110 c33 -7 98 -44 98 -56 0
-5 6 -9 14 -9 8 0 17 -7 20 -16 3 -8 10 -12 16 -9 6 3 13 -1 16 -10 4 -9 13
-14 21 -11 7 3 16 -1 19 -9 4 -8 10 -13 14 -10 4 3 6 -28 4 -67 -4 -95 -5 -98
-21 -98 -7 0 -13 -4 -13 -10 0 -5 -6 -10 -13 -10 -6 0 -25 -16 -41 -35 -16
-19 -35 -35 -43 -35 -7 0 -13 -5 -13 -11 0 -5 -4 -8 -9 -5 -15 9 -59 -51 -73
-97 -6 -23 -20 -54 -30 -69 -10 -14 -18 -31 -18 -38 0 -19 -40 -70 -55 -70 -7
0 -16 8 -20 18 -22 54 -30 629 -10 663 7 11 66 9 137 -6z m8438 -105 c11 -11
20 -24 20 -30 0 -5 -9 -19 -20 -30 -38 -38 -130 -17 -130 28 0 49 90 72 130
32z m-1437 -174 c41 -16 81 -64 97 -112 14 -42 5 -137 -14 -153 -20 -17 -117
-32 -159 -25 -52 8 -68 36 -69 120 -2 90 15 140 56 165 37 23 47 23 89 5z
m-4110 -313 c3 -5 1 -90 -3 -190 -7 -149 -15 -210 -44 -345 -58 -264 -68 -299
-83 -305 -19 -8 -49 7 -105 53 -45 37 -62 74 -39 88 14 9 56 105 79 181 77
251 76 247 80 375 2 68 8 130 14 137 11 14 94 18 101 6z m2694 -157 c10 -9 11
-144 2 -646 -15 -907 -31 -1474 -44 -1521 -4 -19 0 -40 14 -68 17 -33 19 -45
10 -62 -9 -17 -17 -20 -42 -14 -18 3 -45 6 -62 6 -111 -3 -292 1 -420 9 -82 5
-267 12 -410 16 l-260 6 -32 31 c-18 17 -33 39 -33 50 0 17 6 18 89 12 l88 -7
7 115 c4 64 4 137 0 162 -6 44 -7 45 -25 29 -32 -29 -42 -13 -45 79 -3 97 10
126 47 107 21 -12 24 -9 33 50 11 66 16 64 -291 68 -174 2 -272 -1 -263 -7 8
-5 73 -18 143 -29 137 -22 162 -33 152 -66 -4 -12 -8 -70 -9 -131 -1 -110 -13
-155 -40 -155 -20 0 -40 28 -80 112 -21 44 -46 83 -59 89 -12 7 -61 50 -108
96 -66 64 -104 92 -166 122 -45 22 -98 55 -120 74 -21 19 -52 41 -68 50 -17 8
-39 24 -49 36 -18 20 -18 21 8 31 15 5 35 10 44 10 25 0 62 -28 62 -48 1 -44
12 -47 192 -53 95 -3 297 -12 448 -18 530 -24 1185 -47 1197 -43 19 6 22 60
28 602 3 283 8 581 12 661 5 138 5 147 -13 155 -24 11 -1869 12 -1880 1 -16
-15 19 -25 119 -32 79 -5 108 -12 131 -28 25 -18 45 -21 170 -22 169 -2 369
-20 421 -37 30 -10 41 -20 47 -43 11 -42 4 -57 -37 -79 -19 -11 -35 -24 -35
-31 0 -6 14 -24 31 -41 l31 -29 -4 -126 c-3 -124 -2 -127 21 -146 30 -24 22
-53 -13 -53 -34 0 -41 -15 -38 -81 2 -40 -1 -59 -12 -68 -8 -7 -25 -38 -36
-69 -24 -63 -54 -102 -81 -102 -53 0 -47 87 9 136 l35 31 -22 22 c-14 14 -32
21 -49 19 -24 -3 -27 -7 -24 -38 2 -20 -4 -49 -12 -65 -9 -17 -16 -38 -16 -48
0 -31 -28 -30 -65 2 -23 20 -46 31 -66 31 -26 0 -32 6 -49 44 -12 30 -30 51
-51 62 -31 15 -35 15 -65 -1 -24 -13 -44 -16 -74 -11 -33 5 -40 3 -40 -11 0
-42 -68 -71 -98 -41 -34 34 12 84 69 76 l31 -5 -6 51 c-3 28 -6 68 -6 89 0 35
-2 37 -30 37 -31 0 -34 -3 -44 -52 -4 -17 -18 -34 -35 -43 -26 -13 -30 -13
-41 0 -7 9 -10 27 -7 45 5 23 2 32 -13 40 -22 12 -45 5 -84 -28 -28 -23 -31
-23 -43 -6 -7 10 -13 40 -13 66 0 27 -11 81 -25 120 -26 75 -31 123 -15 148
10 16 6 19 107 -73 42 -38 59 -47 88 -47 39 0 100 22 126 46 15 13 14 17 -17
48 -37 37 -43 70 -18 97 21 24 9 57 -24 66 -14 3 -67 2 -116 -4 -63 -6 -93 -6
-98 1 -23 33 9 144 49 169 9 5 10 15 3 33 -15 39 -12 72 8 83 25 16 1953 3
1969 -13z m-113 -272 c9 -3 16 -16 16 -28 0 -18 -6 -22 -35 -23 -30 -1 -35 2
-35 22 0 29 22 41 54 29z m-105 -39 c51 -26 61 -65 61 -244 0 -121 -3 -162
-12 -165 -7 -2 -31 -9 -52 -16 -38 -12 -41 -12 -64 16 -56 68 -57 72 -34 104
18 24 21 37 16 74 -5 33 -2 52 10 70 23 36 20 54 -13 85 -38 35 -47 66 -24 80
26 15 80 13 112 -4z m-6983 -63 c-25 -26 -103 -32 -142 -11 -39 21 -16 30 73
28 76 -1 83 -3 69 -17z m6646 -78 c12 -8 10 -40 -4 -51 -18 -14 -85 -25 -108
-18 -11 4 -25 15 -30 25 -8 15 -6 24 11 41 18 18 28 20 72 15 28 -4 54 -9 59
-12z m776 -300 c3 -23 -18 -37 -43 -28 -8 4 -15 17 -15 31 0 21 4 24 28 21 19
-2 28 -9 30 -24z m-325 -28 c17 -26 18 -57 2 -82 -13 -21 -23 -25 -53 -22 -31
3 -37 0 -42 -22 -4 -15 -17 -29 -34 -35 -40 -14 -78 11 -90 58 -20 80 33 131
92 88 l30 -21 22 30 c17 24 27 29 43 24 12 -4 25 -12 30 -18z m-1962 -58 c1
-7 3 -20 4 -28 1 -8 3 -21 4 -27 1 -9 21 -13 64 -13 34 -1 71 -6 83 -13 32
-18 80 -79 88 -109 3 -16 11 -28 16 -28 18 0 10 -29 -10 -40 -14 -8 -32 -8
-61 0 -29 8 -50 8 -71 1 -17 -6 -47 -11 -66 -11 -23 0 -61 -15 -113 -45 -43
-25 -87 -45 -97 -45 -24 0 -40 19 -82 95 -18 33 -46 76 -62 96 -35 46 -35 65
0 74 15 4 54 20 87 36 33 16 76 29 95 29 19 0 51 8 70 19 44 23 50 24 51 9z
m4834 -110 c19 -18 -29 -33 -112 -34 -65 -1 -83 2 -88 14 -8 22 0 26 48 24 23
-1 56 2 72 7 31 10 63 5 80 -11z m163 -15 c19 -27 0 -34 -56 -22 -54 11 -68
21 -56 40 10 17 96 2 112 -18z m-3260 -130 c-3 -32 -44 -46 -54 -19 -8 21 13
46 38 46 15 0 19 -6 16 -27z m-398 -13 c0 -5 -7 -10 -16 -10 -8 0 -12 5 -9 10
3 6 10 10 16 10 5 0 9 -4 9 -10z m1245 -251 c18 -18 11 -44 -13 -54 -9 -3 -87
-3 -174 1 -138 6 -160 9 -168 25 -7 13 -6 22 6 33 23 23 325 19 349 -5z
m-6771 -121 c-5 -7 -31 -41 -60 -74 -96 -113 -180 -278 -259 -505 -26 -74 -54
-145 -63 -159 -9 -14 -22 -37 -29 -52 -8 -20 -19 -28 -37 -28 -35 0 -50 19
-80 102 -14 40 -58 161 -97 268 -138 380 -144 399 -128 414 10 10 93 16 314
25 165 7 302 15 304 17 2 2 35 4 73 4 53 0 67 -3 62 -12z m-1154 -229 c0 -20
-21 -49 -35 -49 -8 0 -15 7 -15 16 0 9 -5 13 -12 9 -7 -4 -2 3 12 14 27 22 50
27 50 10z m9330 -245 c31 -30 18 -57 -29 -62 -39 -4 -71 21 -71 54 0 48 54 52
100 8z m-3190 -139 c0 -8 -7 -15 -15 -15 -16 0 -20 12 -8 23 11 12 23 8 23 -8z
m3778 -556 c33 -12 27 -29 -10 -29 -39 0 -160 19 -167 26 -22 21 121 23 177 3z
m160 -92 c28 -26 28 -47 0 -47 -26 0 -58 27 -58 50 0 35 16 34 58 -3z m-1983
-291 c39 -19 86 -38 105 -42 37 -7 70 -24 70 -36 0 -14 -47 -8 -91 12 -24 11
-53 20 -64 20 -11 0 -41 11 -67 25 -26 14 -58 25 -72 25 -27 0 -41 14 -30 31
11 18 72 3 149 -35z m-1218 -625 c17 -33 20 -47 12 -58 -22 -26 -79 -12 -79
19 0 11 -5 28 -11 39 -8 15 -7 24 2 35 21 26 51 12 76 -35z m131 17 c7 -7 12
-22 12 -34 0 -13 4 -25 10 -29 9 -5 4 -151 -6 -167 -3 -5 -12 -8 -20 -8 -10 0
-14 10 -13 33 0 17 -11 67 -26 110 -22 62 -25 80 -15 92 15 18 42 19 58 3z
m158 -30 c4 -6 8 -27 10 -47 2 -20 3 -40 4 -46 2 -23 -9 -126 -15 -135 -3 -6
-17 -10 -30 -10 -22 0 -23 3 -23 68 0 37 -4 87 -10 112 -7 31 -7 49 0 58 13
15 54 16 64 0z m145 -24 c13 -11 16 -25 12 -45 -3 -16 0 -49 6 -75 9 -34 9
-50 1 -60 -7 -7 -9 -22 -5 -34 6 -17 2 -20 -28 -20 l-35 0 2 52 c2 29 -4 74
-12 101 -23 78 11 124 59 81z m140 -15 c16 -8 19 -17 14 -40 -5 -21 -2 -31 9
-35 11 -4 14 -17 12 -51 -5 -55 -16 -69 -45 -53 -15 8 -20 17 -16 30 3 10 1
21 -5 25 -5 3 -10 19 -10 35 0 16 -4 32 -10 35 -16 10 -12 43 8 54 21 13 20
13 43 0z m163 -35 c11 -11 13 -21 7 -32 -6 -11 -3 -20 11 -32 18 -14 19 -20 9
-39 -10 -17 -10 -26 0 -37 16 -19 -1 -37 -25 -28 -11 4 -16 14 -13 25 3 10 -2
24 -10 30 -7 7 -13 22 -11 35 2 14 -6 29 -22 42 -21 17 -22 22 -11 36 17 20
45 21 65 0z m155 -18 c9 -11 9 -20 2 -34 -8 -16 -6 -21 14 -30 25 -12 33 -36
15 -47 -5 -3 -7 -19 -3 -35 4 -23 2 -30 -10 -30 -24 0 -39 27 -42 77 -3 37 -8
49 -24 57 -24 10 -27 26 -9 44 16 16 43 15 57 -2z m187 -41 c8 -21 -14 -45
-42 -45 -23 0 -41 30 -29 50 10 16 65 12 71 -5z m144 -15 c0 -5 -4 -10 -10
-10 -5 0 -10 5 -10 10 0 6 5 10 10 10 6 0 10 -4 10 -10z m140 -10 c29 -16 14
-40 -25 -40 -34 0 -61 22 -50 40 8 13 51 13 75 0z m164 -33 c23 -17 11 -47
-19 -47 -12 0 -29 7 -36 16 -11 14 -10 18 6 30 23 17 27 17 49 1z m1473 -46
c10 -16 2 -25 -65 -74 -76 -55 -174 -147 -158 -147 5 0 32 11 60 24 28 14 62
28 76 31 l25 7 -25 -19 c-66 -52 -157 -102 -177 -97 -24 6 -64 -12 -133 -62
-96 -69 -301 -142 -300 -106 1 20 127 132 195 172 22 13 105 74 185 134 80 61
165 118 190 127 25 9 56 21 70 26 30 12 41 9 57 -16z m-1301 8 c9 -16 -20 -41
-39 -33 -27 10 -21 44 7 44 14 0 28 -5 32 -11z m-622 -30 c-3 -5 -10 -7 -15
-3 -5 3 -7 10 -3 15 3 5 10 7 15 3 5 -3 7 -10 3 -15z m326 6 c10 -12 9 -16 -5
-21 -19 -8 -40 9 -31 25 10 15 21 14 36 -4z m459 6 c19 -12 6 -41 -18 -41 -23
0 -35 15 -27 35 6 17 24 19 45 6z m-1682 -23 c17 -14 7 -28 -20 -28 -32 0 -51
15 -44 35 7 17 38 14 64 -7z m1372 3 c17 -11 7 -41 -13 -41 -19 0 -29 17 -22
35 6 17 15 18 35 6z m489 -23 c3 -13 -3 -18 -22 -18 -27 0 -41 14 -31 31 10
16 49 6 53 -13z m-770 -5 c-2 -10 -12 -18 -23 -18 -11 0 -21 8 -23 18 -3 13 3
17 23 17 20 0 26 -4 23 -17z m-910 -15 c3 -14 -4 -18 -32 -18 -36 0 -52 12
-41 31 11 17 69 6 73 -13z m1362 12 c13 -8 13 -11 0 -24 -18 -19 -46 -5 -37
18 7 18 16 20 37 6z m-583 -36 c5 -15 -116 -29 -130 -15 -7 7 -3 13 13 19 33
12 113 9 117 -4z m284 5 c24 -13 16 -29 -16 -29 -29 0 -43 19 -24 31 18 11 17
11 40 -2z m-881 -14 c0 -16 -45 -21 -54 -6 -8 12 4 21 31 21 14 0 23 -6 23
-15z m1065 -15 c0 -22 -32 -37 -47 -22 -11 11 -9 16 7 28 22 16 40 14 40 -6z
m310 10 c-3 -5 -10 -10 -16 -10 -5 0 -9 5 -9 10 0 6 7 10 16 10 8 0 12 -4 9
-10z m-1190 -25 c0 -5 -15 -11 -32 -13 -25 -3 -33 1 -33 13 0 12 8 16 33 13
17 -2 32 -7 32 -13z m575 0 c10 -12 9 -16 -4 -21 -9 -3 -23 -3 -32 0 -13 5
-14 9 -4 21 7 8 16 15 20 15 4 0 13 -7 20 -15z m170 -40 c0 -21 -27 -30 -45
-15 -19 16 -10 30 21 30 15 0 24 -6 24 -15z m-480 -9 c0 -19 -28 -28 -51 -16
-30 16 -23 30 16 30 23 0 35 -5 35 -14z m159 -15 c16 -10 6 -31 -14 -31 -17 0
-28 17 -20 30 8 12 16 12 34 1z m516 -1 c9 -14 -37 -31 -50 -19 -6 7 -5 13 5
19 20 13 37 12 45 0z m-316 -19 c21 -14 5 -41 -24 -41 -29 0 -45 27 -24 41 8
5 19 9 24 9 6 0 16 -4 24 -9z m-3024 -222 c10 -15 -1 -23 -20 -15 -9 3 -13 10
-10 16 8 13 22 13 30 -1z m3705 0 c0 -17 -31 -38 -56 -39 -11 0 -31 -11 -43
-24 -18 -19 -35 -24 -91 -28 -39 -3 -75 -10 -82 -15 -7 -6 -42 -16 -78 -23
-36 -6 -85 -17 -110 -22 -25 -6 -108 -11 -186 -13 -78 -1 -145 -4 -150 -7 -13
-8 -240 27 -298 46 -55 18 -135 74 -136 95 0 10 8 12 32 7 58 -12 210 -26 388
-36 194 -11 421 0 530 26 180 42 280 54 280 33z m550 -1018 c90 -20 168 -49
137 -50 -28 -1 -219 40 -252 54 l-30 13 30 1 c17 0 68 -8 115 -18z"/>
<path d="M5369 8671 c-13 -10 -43 -28 -66 -40 -53 -26 -59 -57 -11 -47 18 3
42 15 53 26 12 11 26 20 32 20 16 0 43 29 43 46 0 19 -23 18 -51 -5z"/>
<path d="M6416 6141 c-30 -5 -52 -14 -58 -25 -5 -9 -23 -25 -39 -35 -29 -18
-28 -18 79 -13 88 3 111 7 127 23 15 15 17 23 9 37 -12 19 -46 23 -118 13z"/>
<path d="M6380 5950 c-7 -4 -10 -16 -7 -25 9 -21 51 -16 55 6 3 18 -29 31 -48
19z"/>
<path d="M6248 5889 c-20 -14 -28 -30 -28 -50 0 -36 -24 -48 -49 -25 -22 20
-47 21 -55 0 -18 -47 8 -74 63 -67 53 7 76 -24 66 -91 -8 -53 3 -59 27 -16 11
20 28 33 48 36 36 8 36 8 10 67 -11 26 -24 72 -28 103 -4 32 -11 59 -17 60 -5
2 -22 -6 -37 -17z"/>
<path d="M6980 4893 c0 -12 33 -23 69 -23 51 0 152 -23 166 -37 19 -18 4 -49
-29 -64 l-23 -11 23 -23 c19 -19 22 -30 17 -62 -3 -21 -12 -51 -19 -68 -8 -16
-21 -59 -29 -95 -9 -36 -20 -78 -27 -93 -13 -33 -83 -77 -122 -77 -36 0 -87
22 -110 48 -29 34 -73 38 -102 11 -15 -14 -42 -25 -71 -29 -52 -6 -75 -29 -57
-57 12 -20 39 -22 454 -42 129 -7 258 -14 286 -17 79 -9 81 -5 89 201 4 102 4
191 -2 213 -7 26 -5 60 6 115 13 69 13 80 -1 93 -12 12 -63 16 -266 21 -172 4
-252 3 -252 -4z m496 -138 c3 -14 3 -32 0 -41 -10 -27 -31 -9 -34 29 -2 28 1
37 12 37 9 0 18 -11 22 -25z"/>
<path d="M7567 4848 c-3 -18 -6 -157 -7 -309 -1 -282 2 -312 35 -278 10 11 14
81 17 304 1 160 -1 296 -5 303 -15 22 -35 12 -40 -20z"/>
<path d="M6683 4838 c-15 -20 -15 -241 0 -262 12 -16 14 -16 31 3 14 15 18 33
17 64 -8 130 -8 131 21 145 36 17 89 3 146 -39 51 -37 76 -35 80 7 5 53 -24
68 -147 75 -58 4 -113 10 -122 13 -9 4 -20 1 -26 -6z"/>
<path d="M6901 4586 c-20 -21 -22 -28 -11 -41 27 -33 75 -7 68 37 -4 32 -29
33 -57 4z"/>
<path d="M6680 4490 c0 -13 5 -20 13 -17 6 2 12 10 12 17 0 7 -6 15 -12 18 -8
2 -13 -5 -13 -18z"/>
<path d="M8100 6400 c-8 -5 -27 -10 -41 -10 -14 0 -33 -6 -44 -13 -28 -21 1
-32 31 -12 27 17 26 18 89 -29 8 -6 26 0 51 18 21 14 44 26 51 26 7 0 13 4 13
9 0 19 -123 29 -150 11z"/>
<path d="M8130 6212 c0 -14 23 -32 42 -32 24 0 23 17 -1 30 -23 12 -41 13 -41
2z"/>
<path d="M8442 6131 c-10 -6 -8 -10 10 -14 40 -11 68 -8 68 8 0 17 -55 21 -78
6z"/>
<path d="M9820 5890 c0 -5 7 -10 16 -10 8 0 12 5 9 10 -3 6 -10 10 -16 10 -5
0 -9 -4 -9 -10z"/>
<path d="M9065 5755 c20 -16 37 -16 36 0 0 6 -13 11 -28 13 -27 2 -27 2 -8
-13z"/>
<path d="M8989 5604 c-6 -17 -8 -53 -5 -89 14 -138 22 -191 29 -202 12 -20 43
-15 72 10 22 19 26 33 31 97 3 41 2 102 -3 134 -8 59 -8 59 -43 61 -19 1 -43
5 -52 9 -14 6 -20 1 -29 -20z"/>
<path d="M9853 5593 c-29 -5 -30 -20 -2 -28 22 -7 109 14 109 27 0 8 -67 9
-107 1z"/>
<path d="M8161 5467 c-15 -15 -14 -37 2 -37 14 0 37 19 37 31 0 13 -28 17 -39
6z"/>
<path d="M9326 5278 c10 -15 84 -29 102 -19 15 8 13 11 -12 21 -31 12 -98 11
-90 -2z"/>
<path d="M8390 5252 c0 -23 51 -48 153 -76 89 -24 112 -27 133 -17 18 8 24 18
22 33 -2 17 -16 26 -63 40 -73 22 -245 36 -245 20z"/>
</g>
</svg>
